<?xml version="1.0" encoding="utf-8"?>
<!-- Generator: Adobe Illustrator 16.2.1, SVG Export Plug-In . SVG Version: 6.00 Build 0)  -->
<!DOCTYPE svg PUBLIC "-//W3C//DTD SVG 1.1//EN" "http://www.w3.org/Graphics/SVG/1.1/DTD/svg11.dtd">
<svg version="1.1" id="Capa_1" xmlns="http://www.w3.org/2000/svg" xmlns:xlink="http://www.w3.org/1999/xlink" x="0px" y="0px"
	 width="720px" height="720px" viewBox="0 0 720 720" enable-background="new 0 0 720 720" xml:space="preserve">
<g>
	<path fill="#FFFFFF" d="M656.077,176.05c-5.879-57.474-15.244-102.223-30.061-119.812c-61.087-72.322-488.995-77.614-537.58,0
		c-11.884,19.015-20.219,63.606-25.813,119.908c-18.049,2.123-32.104,17.32-32.104,35.923v70.404c0,15.656,9.92,28.856,23.77,34.006
		c-3.28,110.892-0.618,226.584,4.294,284.121c0,44.417,29.838,37.048,29.838,37.048h27.968v47.95
		c0,19.016,19.602,34.402,43.751,34.402c24.182,0,43.783-15.387,43.783-34.402v-47.95h325.384v47.95
		c0,19.016,19.586,34.402,43.768,34.402c24.149,0,43.751-15.387,43.751-34.402v-47.95h9.19c0,0,35.115,4.817,37.365-16.1
		c0-57.379,3.613-184.544,0.634-304.578c14.721-4.611,25.465-18.175,25.465-34.497v-70.404
		C689.496,193.021,674.76,177.572,656.077,176.05z M192.942,66.554h328.569v49.709H192.942V66.554z M197.633,581.029
		c-25.797,0-46.699-20.917-46.699-46.714c0-25.782,20.901-46.683,46.699-46.683s46.714,20.9,46.714,46.683
		C244.347,560.112,223.446,581.029,197.633,581.029z M519.753,581.029c-25.782,0-46.73-20.917-46.73-46.714
		c0-25.782,20.933-46.683,46.73-46.683c25.797,0,46.698,20.9,46.698,46.683C566.467,560.112,545.55,581.029,519.753,581.029z
		 M579.128,376.615H135.326v-232.78h443.802V376.615z"/>
</g>
</svg>
