<?xml version="1.0" encoding="utf-8"?>
<!-- Generator: Adobe Illustrator 16.2.1, SVG Export Plug-In . SVG Version: 6.00 Build 0)  -->
<!DOCTYPE svg PUBLIC "-//W3C//DTD SVG 1.1//EN" "http://www.w3.org/Graphics/SVG/1.1/DTD/svg11.dtd">
<svg version="1.1" id="Capa_1" xmlns="http://www.w3.org/2000/svg" xmlns:xlink="http://www.w3.org/1999/xlink" x="0px" y="0px"
	 width="514.8px" height="514.8px" viewBox="0 0 514.8 514.8" enable-background="new 0 0 514.8 514.8" xml:space="preserve">
<g>
	<path fill="#FFFFFF" d="M405.962,47.612c-7.037,0-13.674,1.597-19.688,4.312c-12.021-23.963-36.75-40.459-65.391-40.459
		c-18.627,0-35.581,7.019-48.5,18.484C250.658,11.398,221.961,0,190.396,0C123.573,0,69.344,50.614,67.967,113.517
		c-25.054,11.628-42.458,36.93-42.458,66.354c0,34.004,23.228,62.52,54.669,70.724l338.579,2.324
		c39.178-1.405,70.533-33.526,70.533-73.048c0-28.219-15.988-52.661-39.389-64.872c2.609-5.929,4.121-12.441,4.121-19.335
		C454.025,69.127,432.507,47.612,405.962,47.612z"/>
	<path fill="#FFFFFF" d="M141.818,372.365c8.501-16.439,9.524-91.361,9.524-91.361s-60.55,44.142-69.051,60.578
		c-8.501,16.438-2.065,36.653,14.373,45.154S133.317,388.802,141.818,372.365z"/>
	<path fill="#FFFFFF" d="M266.13,372.365c8.5-16.439,9.523-91.361,9.523-91.361s-60.55,44.142-69.051,60.578
		c-8.501,16.438-2.065,36.653,14.372,45.154C237.414,395.237,257.629,388.802,266.13,372.365z"/>
	<path fill="#FFFFFF" d="M354.861,386.736c16.438,8.501,36.652,2.064,45.154-14.372c8.5-16.438,9.523-91.36,9.523-91.36
		s-60.549,44.142-69.051,60.578C331.988,358.021,338.423,378.235,354.861,386.736z"/>
	<path fill="#FFFFFF" d="M125.361,511.048c16.438,8.502,36.653,2.066,45.154-14.371s9.524-91.359,9.524-91.359
		s-60.549,44.141-69.051,60.576C102.487,482.333,108.923,502.548,125.361,511.048z"/>
	<path fill="#FFFFFF" d="M249.673,511.048c16.438,8.502,36.653,2.066,45.155-14.371c8.5-16.438,9.523-91.359,9.523-91.359
		s-60.55,44.141-69.051,60.576C226.8,482.333,233.235,502.548,249.673,511.048z"/>
</g>
</svg>
