<?xml version="1.0" encoding="utf-8"?>
<!-- Generator: Adobe Illustrator 16.2.1, SVG Export Plug-In . SVG Version: 6.00 Build 0)  -->
<!DOCTYPE svg PUBLIC "-//W3C//DTD SVG 1.1//EN" "http://www.w3.org/Graphics/SVG/1.1/DTD/svg11.dtd">
<svg version="1.1" id="Layer_1" xmlns="http://www.w3.org/2000/svg" xmlns:xlink="http://www.w3.org/1999/xlink" x="0px" y="0px"
	 width="432px" height="180px" viewBox="0 0 432 180" enable-background="new 0 0 432 180" xml:space="preserve">
<rect x="-1.797" y="-2.333" fill="#FCE198" width="434.666" height="182.333"/>
<g>
	<path fill="#2B2B2B" d="M89.327,123.442l-7.295-16.566H56.544l-7.471,16.566H38.087l31.158-66.885l31.113,66.885H89.327z
		 M60.411,98.175h17.93l-6.592-14.679c-0.381-0.938-0.775-2.014-1.186-3.229s-0.82-2.571-1.23-4.065
		c-0.352,1.406-0.725,2.718-1.121,3.934c-0.395,1.216-0.799,2.336-1.209,3.361L60.411,98.175z"/>
	<path fill="#2B2B2B" d="M115.423,123.442V59.106h10.459v54.977h23.379v9.359H115.423z"/>
	<path fill="#2B2B2B" d="M166.741,123.442V59.106h35.904v8.877H177.2v16.04h25.445v9.185H177.2v30.234H166.741z"/>
	<path fill="#2B2B2B" d="M232.782,94.659v28.783h-9.799V59.106h14.59c4.277,0,7.596,0.279,9.953,0.835
		c2.357,0.557,4.373,1.479,6.043,2.769c1.992,1.554,3.529,3.56,4.613,6.021s1.627,5.157,1.627,8.086
		c0,5.157-1.246,9.192-3.736,12.107s-6.166,4.665-11.029,5.251l22.148,29.268H255.37l-21.4-28.783H232.782z M233.442,86.528h1.889
		c5.537,0,9.215-0.644,11.031-1.934c1.816-1.289,2.725-3.574,2.725-6.855c0-3.544-0.975-6.042-2.922-7.492
		c-1.949-1.45-5.561-2.176-10.834-2.176h-1.889V86.528z"/>
	<path fill="#2B2B2B" d="M282.388,123.442V59.106h35.904v8.877h-25.445v16.128h25.445v9.185h-25.445v20.787h25.445v9.359H282.388z"
		/>
	<path fill="#2B2B2B" d="M339.288,123.442V59.106h14.107c9.17,0,15.623,0.462,19.357,1.385c3.736,0.923,7.01,2.468,9.822,4.636
		c3.721,2.842,6.541,6.489,8.459,10.942c1.918,4.454,2.879,9.536,2.879,15.249c0,5.714-0.961,10.774-2.879,15.184
		s-4.738,8.05-8.459,10.921c-2.812,2.168-6.014,3.713-9.602,4.636c-3.59,0.923-9.178,1.384-16.766,1.384h-2.812H339.288z
		 M349.747,113.995h8.789c4.834,0,8.461-0.322,10.877-0.967c2.418-0.645,4.52-1.729,6.307-3.252c2.432-2.08,4.256-4.666,5.471-7.757
		s1.824-6.687,1.824-10.789c0-4.102-0.609-7.697-1.824-10.788s-3.039-5.676-5.471-7.757c-1.816-1.522-3.992-2.607-6.525-3.252
		c-2.535-0.644-6.498-0.967-11.889-0.967h-3.779h-3.779V113.995z"/>
</g>
<g>
	<g>
		<g>
			<rect x="208.204" y="14.372" fill="#FCBB1C" width="2.494" height="29.574"/>
		</g>
		<g>
			<rect x="181.362" y="22.807" fill="#FCBB1C" width="56.181" height="2.497"/>
		</g>
		<g>
			<path fill="#FCBB1C" d="M240.246,28.903c-2.673,0-4.848-2.173-4.848-4.845c0-2.673,2.175-4.845,4.848-4.845
				c2.67,0,4.842,2.172,4.842,4.845C245.088,26.729,242.916,28.903,240.246,28.903z M240.246,21.71
				c-1.297,0-2.348,1.051-2.348,2.348c0,1.294,1.051,2.346,2.348,2.346c1.294,0,2.342-1.052,2.342-2.346
				C242.588,22.761,241.54,21.71,240.246,21.71z"/>
		</g>
		<g>
			<path fill="#FCBB1C" d="M177.933,28.903c-2.673,0-4.845-2.173-4.845-4.845c0-2.673,2.172-4.845,4.845-4.845
				c2.67,0,4.845,2.172,4.845,4.845C182.777,26.729,180.603,28.903,177.933,28.903z M177.933,21.71
				c-1.294,0-2.348,1.051-2.348,2.348c0,1.294,1.054,2.346,2.348,2.346c1.288,0,2.345-1.052,2.345-2.346
				C180.277,22.761,179.221,21.71,177.933,21.71z"/>
		</g>
	</g>
	<g>
		<rect x="133.095" y="41.449" fill="#FCBB1C" width="152.713" height="2.497"/>
	</g>
</g>
<g>
	<g>
		<g>
			<rect x="208.204" y="137.038" fill="#FCBB1C" width="2.494" height="29.574"/>
		</g>
		<g>
			<rect x="181.362" y="155.681" fill="#FCBB1C" width="56.181" height="2.496"/>
		</g>
		<g>
			<path fill="#FCBB1C" d="M245.088,156.925c0,2.674-2.172,4.846-4.842,4.846c-2.673,0-4.848-2.172-4.848-4.846
				c0-2.671,2.175-4.844,4.848-4.844C242.916,152.081,245.088,154.254,245.088,156.925z M242.588,156.925
				c0-1.293-1.048-2.346-2.342-2.346c-1.297,0-2.348,1.053-2.348,2.346c0,1.297,1.051,2.349,2.348,2.349
				C241.54,159.273,242.588,158.222,242.588,156.925z"/>
		</g>
		<g>
			<path fill="#FCBB1C" d="M182.777,156.925c0,2.674-2.175,4.846-4.845,4.846c-2.673,0-4.845-2.172-4.845-4.846
				c0-2.671,2.172-4.844,4.845-4.844C180.603,152.081,182.777,154.254,182.777,156.925z M180.277,156.925
				c0-1.293-1.057-2.346-2.345-2.346c-1.294,0-2.348,1.053-2.348,2.346c0,1.297,1.054,2.349,2.348,2.349
				C179.221,159.273,180.277,158.222,180.277,156.925z"/>
		</g>
	</g>
	<g>
		<rect x="133.095" y="137.038" fill="#FCBB1C" width="152.713" height="2.496"/>
	</g>
</g>
</svg>
