<?xml version="1.0" encoding="utf-8"?>
<!-- Generator: Adobe Illustrator 16.2.1, SVG Export Plug-In . SVG Version: 6.00 Build 0)  -->
<!DOCTYPE svg PUBLIC "-//W3C//DTD SVG 1.1//EN" "http://www.w3.org/Graphics/SVG/1.1/DTD/svg11.dtd">
<svg version="1.1" id="Capa_1" xmlns="http://www.w3.org/2000/svg" xmlns:xlink="http://www.w3.org/1999/xlink" x="0px" y="0px"
	 width="720px" height="720px" viewBox="0 0 720 720" enable-background="new 0 0 720 720" xml:space="preserve">
<g>
	<g id="news">
		<path fill="#FFFFFF" d="M652.5,0h-495C120.217,0,90,30.195,90,67.5v45H67.5C30.217,112.5,0,142.695,0,180v450
			c0,49.702,40.297,90,90,90h540c49.702,0,90-40.298,90-90V67.5C720,30.195,689.76,0,652.5,0z M675,630c0,24.795-20.205,45-45,45H90
			c-24.817,0-45-20.205-45-45V180c0-12.42,10.08-22.5,22.5-22.5H90v450c0,12.442,10.058,22.5,22.5,22.5s22.5-10.058,22.5-22.5v-540
			c0-12.42,10.08-22.5,22.5-22.5h495c12.397,0,22.5,10.08,22.5,22.5V630z"/>
		<path fill="#FFFFFF" d="M438.705,292.612h180c6.232,0,11.25-5.04,11.25-11.25s-5.018-11.25-11.25-11.25h-180
			c-6.188,0-11.25,5.04-11.25,11.25S432.518,292.612,438.705,292.612z"/>
		<path fill="#FFFFFF" d="M438.705,225.112h180c6.232,0,11.25-5.04,11.25-11.25s-5.018-11.25-11.25-11.25h-180
			c-6.188,0-11.25,5.04-11.25,11.25S432.518,225.112,438.705,225.112z"/>
		<path fill="#FFFFFF" d="M438.705,157.612h180c6.232,0,11.25-5.04,11.25-11.25s-5.018-11.25-11.25-11.25h-180
			c-6.188,0-11.25,5.04-11.25,11.25S432.518,157.612,438.705,157.612z"/>
		<path fill="#FFFFFF" d="M371.25,607.59h-180c-6.21,0-11.25,5.062-11.25,11.25c0,6.232,5.04,11.25,11.25,11.25h180
			c6.188,0,11.25-5.018,11.25-11.25C382.5,612.652,377.46,607.59,371.25,607.59z"/>
		<path fill="#FFFFFF" d="M371.25,540.09h-180c-6.21,0-11.25,5.062-11.25,11.25c0,6.232,5.04,11.25,11.25,11.25h180
			c6.188,0,11.25-5.018,11.25-11.25C382.5,545.152,377.46,540.09,371.25,540.09z"/>
		<path fill="#FFFFFF" d="M371.25,472.59h-180c-6.21,0-11.25,5.062-11.25,11.25c0,6.232,5.04,11.25,11.25,11.25h180
			c6.188,0,11.25-5.018,11.25-11.25C382.5,477.652,377.46,472.59,371.25,472.59z"/>
		<path fill="#FFFFFF" d="M618.75,607.59h-180c-6.232,0-11.25,5.062-11.25,11.25c0,6.232,5.018,11.25,11.25,11.25h180
			c6.188,0,11.25-5.018,11.25-11.25C630,612.652,624.938,607.59,618.75,607.59z"/>
		<path fill="#FFFFFF" d="M618.75,540.09h-180c-6.232,0-11.25,5.062-11.25,11.25c0,6.232,5.018,11.25,11.25,11.25h180
			c6.188,0,11.25-5.018,11.25-11.25C630,545.152,624.938,540.09,618.75,540.09z"/>
		<path fill="#FFFFFF" d="M618.75,472.59h-180c-6.232,0-11.25,5.062-11.25,11.25c0,6.232,5.018,11.25,11.25,11.25h180
			c6.188,0,11.25-5.018,11.25-11.25C630,477.652,624.938,472.59,618.75,472.59z"/>
		<path fill="#FFFFFF" d="M618.75,337.59h-427.5c-6.21,0-11.25,5.04-11.25,11.25s5.04,11.25,11.25,11.25h427.5
			c6.188,0,11.25-5.04,11.25-11.25S624.938,337.59,618.75,337.59z"/>
		<path fill="#FFFFFF" d="M618.75,405.09h-427.5c-6.21,0-11.25,5.062-11.25,11.25c0,6.232,5.04,11.25,11.25,11.25h427.5
			c6.188,0,11.25-5.018,11.25-11.25C630,410.152,624.938,405.09,618.75,405.09z"/>
		<path fill="#FFFFFF" d="M202.5,292.5H360c12.442,0,22.5-10.058,22.5-22.5V112.59c0-12.442-10.058-22.5-22.5-22.5H202.5
			c-12.442,0-22.5,10.058-22.5,22.5V270C180,282.42,190.058,292.5,202.5,292.5z M225,135h112.5v112.5H225V135z"/>
	</g>
</g>
</svg>
